<svg width="24" height="24" viewBox="0 0 24 24" fill="none" xmlns="http://www.w3.org/2000/svg">
<g id="Group 1">
<g id="&#240;&#159;&#166;&#134; icon &#34;menu&#34;">
<g id="Group">
<g id="Vector">
<mask id="path-1-inside-1_12_289" fill="white">
<path d="M2 6H22.5225H2Z"/>
</mask>
<path d="M2 5C1.44772 5 1 5.44772 1 6C1 6.55228 1.44772 7 2 7V5ZM22.5225 7C23.0748 7 23.5225 6.55228 23.5225 6C23.5225 5.44772 23.0748 5 22.5225 5V7ZM2 7H22.5225V5H2V7Z" fill="#222222" mask="url(#path-1-inside-1_12_289)"/>
</g>
<g id="Vector_2">
<mask id="path-3-inside-2_12_289" fill="white">
<path d="M10 11.6289L22.4816 11.701L10 11.6289Z"/>
</mask>
<path d="M10.0058 10.6289C9.4535 10.6257 9.0032 11.0709 9.00002 11.6231C8.99683 12.1754 9.44195 12.6257 9.99423 12.6289L10.0058 10.6289ZM22.4758 12.7009C23.0281 12.7041 23.4784 12.259 23.4816 11.7067C23.4847 11.1544 23.0396 10.7042 22.4873 10.701L22.4758 12.7009ZM9.99423 12.6289L22.4758 12.7009L22.4873 10.701L10.0058 10.6289L9.99423 12.6289Z" fill="#222222" mask="url(#path-3-inside-2_12_289)"/>
</g>
<g id="Vector_3">
<mask id="path-5-inside-3_12_289" fill="white">
<path d="M2 17.4014H22.5225H2Z"/>
</mask>
<path d="M2 16.4014C1.44772 16.4014 1 16.8491 1 17.4014C1 17.9537 1.44772 18.4014 2 18.4014V16.4014ZM22.5225 18.4014C23.0748 18.4014 23.5225 17.9537 23.5225 17.4014C23.5225 16.8491 23.0748 16.4014 22.5225 16.4014V18.4014ZM2 18.4014H22.5225V16.4014H2V18.4014Z" fill="#222222" mask="url(#path-5-inside-3_12_289)"/>
</g>
</g>
</g>
</g>
</svg>
