<svg width="24" height="24" viewBox="0 0 24 24" fill="none" xmlns="http://www.w3.org/2000/svg">
<g id="Group 25">
<g id="&#240;&#159;&#166;&#134; icon &#34;message&#34;">
<g id="Group">
<path id="Vector" d="M11.9938 21.0627C12.5718 21.0627 13.1164 20.7695 13.5018 20.2585L14.7585 18.5829C14.7836 18.5494 14.8841 18.5075 14.926 18.4991H15.3449C18.8385 18.4991 21 17.5524 21 12.844V8.65508C21 4.95205 19.048 3 15.3449 3H8.64261C4.93958 3 2.98753 4.95205 2.98753 8.65508V12.844C2.98753 16.5471 4.93958 18.4991 8.64261 18.4991H9.06151C9.12853 18.4991 9.18717 18.5326 9.22906 18.5829L10.4857 20.2585C10.8711 20.7695 11.4157 21.0627 11.9938 21.0627ZM15.3449 4.25668C18.3442 4.25668 19.7433 5.65579 19.7433 8.65508V12.844C19.7433 16.6308 18.4447 17.2424 15.3449 17.2424H14.926C14.4988 17.2424 14.0128 17.4854 13.7531 17.8289L12.4964 19.5044C12.2032 19.8898 11.7843 19.8898 11.4911 19.5044L10.2344 17.8289C9.95794 17.4602 9.52229 17.2424 9.06151 17.2424H8.64261C5.64333 17.2424 4.24422 15.8433 4.24422 12.844V8.65508C4.24422 5.65579 5.64333 4.25668 8.64261 4.25668H15.3449Z" fill="#222222"/>
<path id="Vector_2" d="M11.9925 12.0062C12.4617 12.0062 12.8303 11.6292 12.8303 11.1684C12.8303 10.7076 12.4533 10.3306 11.9925 10.3306C11.5317 10.3306 11.1547 10.7076 11.1547 11.1684C11.1547 11.6292 11.5234 12.0062 11.9925 12.0062Z" fill="#222222"/>
<path id="Vector_3" d="M8.6428 12.0062C9.11196 12.0062 9.48059 11.6292 9.48059 11.1684C9.48059 10.7076 9.10359 10.3306 8.6428 10.3306C8.18202 10.3306 7.80501 10.7076 7.80501 11.1684C7.80501 11.6292 8.17364 12.0062 8.6428 12.0062Z" fill="#222222"/>
<path id="Vector_4" d="M15.3441 12.0062C15.8133 12.0062 16.1819 11.6292 16.1819 11.1684C16.1819 10.7076 15.8049 10.3306 15.3441 10.3306C14.8833 10.3306 14.5063 10.7076 14.5063 11.1684C14.5063 11.6292 14.8749 12.0062 15.3441 12.0062Z" fill="#222222"/>
</g>
</g>
</g>
</svg>
