<svg width="24" height="24" viewBox="0 0 24 24" fill="none" xmlns="http://www.w3.org/2000/svg">
<g id="Group 59">
<g id="&#240;&#159;&#166;&#134; icon &#34;instagram&#34;">
<path id="Vector" d="M16.0649 2H7.75876C4.15086 2 2 4.15086 2 7.75876V16.055C2 19.6728 4.15086 21.8236 7.75876 21.8236H16.055C19.6629 21.8236 21.8137 19.6728 21.8137 16.0649V7.75876C21.8236 4.15086 19.6728 2 16.0649 2ZM11.9118 15.7576C9.79069 15.7576 8.06603 14.0329 8.06603 11.9118C8.06603 9.79069 9.79069 8.06603 11.9118 8.06603C14.0329 8.06603 15.7576 9.79069 15.7576 11.9118C15.7576 14.0329 14.0329 15.7576 11.9118 15.7576ZM17.7796 6.83697C17.73 6.95591 17.6607 7.06494 17.5715 7.16406C17.4723 7.25326 17.3633 7.32264 17.2444 7.3722C17.1254 7.42176 16.9966 7.4515 16.8677 7.4515C16.6001 7.4515 16.3523 7.35238 16.164 7.16406C16.0748 7.06494 16.0054 6.95591 15.9558 6.83697C15.9063 6.71802 15.8765 6.58917 15.8765 6.46032C15.8765 6.33146 15.9063 6.20261 15.9558 6.08367C16.0054 5.95481 16.0748 5.8557 16.164 5.75658C16.392 5.52861 16.7389 5.41958 17.056 5.48896C17.1254 5.49887 17.1849 5.51869 17.2444 5.54843C17.3038 5.56825 17.3633 5.59799 17.4228 5.63764C17.4723 5.66737 17.5219 5.71693 17.5715 5.75658C17.6607 5.8557 17.73 5.95481 17.7796 6.08367C17.8292 6.20261 17.8589 6.33146 17.8589 6.46032C17.8589 6.58917 17.8292 6.71802 17.7796 6.83697Z" fill="#222222"/>
</g>
</g>
</svg>
