<svg width="24" height="24" viewBox="0 0 24 24" fill="none" xmlns="http://www.w3.org/2000/svg">
<g id="Group 13">
<g id="&#240;&#159;&#166;&#134; icon &#34;home 2&#34;">
<g id="Group">
<path id="Vector" d="M16.8626 21H7.15709C4.86063 21 3 19.131 3 16.8345V10.624C3 9.48417 3.70402 8.05098 4.6092 7.34695L9.12668 3.82684C10.4844 2.7708 12.6552 2.72052 14.0632 3.7095L19.2428 7.33857C20.2402 8.03421 21.0196 9.52607 21.0196 10.7414V16.8429C21.0196 19.131 19.159 21 16.8626 21ZM9.89775 4.81582L5.38027 8.33594C4.7852 8.80529 4.25718 9.8697 4.25718 10.624V16.8345C4.25718 18.4353 5.55627 19.7428 7.15709 19.7428H16.8626C18.4634 19.7428 19.7625 18.4437 19.7625 16.8429V10.7414C19.7625 9.93675 19.1842 8.82205 18.522 8.36946L13.3424 4.74039C12.387 4.06989 10.8113 4.10342 9.89775 4.81582Z" fill="black"/>
<path id="Vector_2" d="M12.0086 17.6476C11.665 17.6476 11.38 17.3626 11.38 17.019V14.5046C11.38 14.161 11.665 13.876 12.0086 13.876C12.3522 13.876 12.6372 14.161 12.6372 14.5046V17.019C12.6372 17.3626 12.3522 17.6476 12.0086 17.6476Z" fill="black"/>
</g>
</g>
</g>
</svg>
