<svg width="24" height="24" viewBox="0 0 24 24" fill="none" xmlns="http://www.w3.org/2000/svg">
<g id="Group 60">
<g id="&#240;&#159;&#166;&#134; icon &#34;facebook&#34;">
<path id="Vector" d="M22.1797 16.3175C22.1797 19.9902 19.9902 22.1797 16.3175 22.1797H15.1168C14.5619 22.1797 14.1078 21.7256 14.1078 21.1707V15.3489C14.1078 15.0764 14.3298 14.8444 14.6022 14.8444L16.378 14.8141C16.5193 14.804 16.6404 14.7031 16.6706 14.5619L17.0238 12.6347C17.054 12.4531 16.9128 12.2815 16.7211 12.2815L14.5719 12.3118C14.2894 12.3118 14.0675 12.0898 14.0574 11.8174L14.017 9.34541C14.017 9.18397 14.1482 9.04272 14.3197 9.04272L16.7413 9.00235C16.9128 9.00235 17.044 8.87119 17.044 8.69967L17.0036 6.27808C17.0036 6.10656 16.8724 5.9754 16.7009 5.9754L13.9766 6.01577C12.3017 6.04604 10.9699 7.41825 11.0001 9.09316L11.0506 11.8679C11.0607 12.1504 10.8387 12.3724 10.5562 12.3824L9.34541 12.4026C9.17388 12.4026 9.04272 12.5338 9.04272 12.7053L9.07299 14.6224C9.07299 14.7939 9.20415 14.9251 9.37568 14.9251L10.5865 14.9049C10.869 14.9049 11.0909 15.1269 11.101 15.3993L11.1918 21.1505C11.2019 21.7156 10.7479 22.1797 10.1829 22.1797H7.8622C4.1895 22.1797 2 19.9902 2 16.3074V7.8622C2 4.1895 4.1895 2 7.8622 2H16.3175C19.9902 2 22.1797 4.1895 22.1797 7.8622V16.3175Z" fill="#222222"/>
</g>
</g>
</svg>
