<svg width="18" height="18" viewBox="0 0 18 18" fill="none" xmlns="http://www.w3.org/2000/svg">
<g id="Group 35">
<g id="&#240;&#159;&#166;&#134; icon &#34;location&#34;">
<g id="Group">
<path id="Vector" d="M9.03165 10.5601C7.66156 10.5601 6.54236 9.44737 6.54236 8.07088C6.54236 6.69441 7.66156 5.58807 9.03165 5.58807C10.4017 5.58807 11.5209 6.70084 11.5209 8.07731C11.5209 9.4538 10.4017 10.5601 9.03165 10.5601ZM9.03165 6.5529C8.19546 6.5529 7.50719 7.23472 7.50719 8.07731C7.50719 8.91993 8.18903 9.60174 9.03165 9.60174C9.87426 9.60174 10.5561 8.91993 10.5561 8.07731C10.5561 7.23472 9.86783 6.5529 9.03165 6.5529Z" fill="#222222"/>
<path id="Vector_2" d="M9.03161 16.0857C8.07965 16.0857 7.12125 15.7255 6.37511 15.0115C4.47761 13.1847 2.38071 10.271 3.17188 6.804C3.88585 3.65865 6.6324 2.25 9.03161 2.25H9.03805C11.4373 2.25 14.1838 3.65865 14.8978 6.81043C15.6825 10.2774 13.5856 13.1847 11.6881 15.0115C10.942 15.7255 9.98358 16.0857 9.03161 16.0857ZM9.03161 3.21483C7.15984 3.21483 4.7542 4.21182 4.11741 7.01626C3.42273 10.0458 5.32666 12.6573 7.05049 14.3104C8.16327 15.3846 9.90639 15.3846 11.0192 14.3104C12.7366 12.6573 14.6405 10.0458 13.9587 7.01626C13.3155 4.21182 10.9034 3.21483 9.03161 3.21483Z" fill="#222222"/>
</g>
</g>
</g>
</svg>
