<svg width="20" height="20" viewBox="0 0 20 20" fill="none" xmlns="http://www.w3.org/2000/svg">
<path d="M11.4493 2.87122L12.9182 5.82861C13.1161 6.23761 13.6474 6.62563 14.0953 6.70953L16.7518 7.14999C18.4498 7.43314 18.8457 8.67068 17.6268 9.90817L15.5538 11.9951C15.21 12.3412 15.0121 13.0229 15.1267 13.5158L15.7204 16.0956C16.1892 18.1301 15.1058 18.9271 13.3245 17.8575L10.8347 16.3683C10.3868 16.0956 9.63672 16.0956 9.18877 16.3683L6.69903 17.8575C4.91761 18.9167 3.83421 18.1301 4.30299 16.0956L4.89678 13.5158C4.99053 13.0124 4.7926 12.3307 4.44883 11.9846L2.37578 9.89768C1.15695 8.67068 1.55281 7.43314 3.25084 7.1395L5.90731 6.69904C6.35526 6.62563 6.88654 6.22712 7.08447 5.81812L8.55332 2.86073C9.35545 1.26668 10.6472 1.26668 11.4493 2.87122Z" fill="white"/>
</svg>
