<svg width="24" height="24" viewBox="0 0 24 24" fill="none" xmlns="http://www.w3.org/2000/svg">
<g id="Group 69">
<path id="Vector" d="M18.958 8.78675L18.6429 18.0492C18.6161 18.8425 18.2721 19.5944 17.6839 20.1453C17.0957 20.6962 16.3096 21.0028 15.4925 21H9.50669C8.69012 21.0028 7.90451 20.6967 7.31639 20.1464C6.72828 19.5961 6.3839 18.845 6.35626 18.0523L6.04122 8.78675C6.03432 8.58385 6.11069 8.38659 6.25353 8.23839C6.39636 8.09018 6.59395 8.00315 6.80284 7.99646C7.01172 7.98976 7.21479 8.06394 7.36737 8.20268C7.51995 8.34142 7.60954 8.53335 7.61643 8.73626L7.93148 18.001C7.94717 18.3965 8.12003 18.7707 8.41375 19.045C8.70748 19.3194 9.09922 19.4725 9.50669 19.4722H15.4925C15.9005 19.4724 16.2927 19.3189 16.5865 19.0439C16.8803 18.769 17.0528 18.394 17.0677 17.9979L17.3828 8.73626C17.3897 8.53335 17.4793 8.34142 17.6318 8.20268C17.7844 8.06394 17.9875 7.98976 18.1964 7.99646C18.4053 8.00315 18.6029 8.09018 18.7457 8.23839C18.8885 8.38659 18.9649 8.58385 18.958 8.78675ZM20 5.70437C20 5.90727 19.917 6.10187 19.7693 6.24534C19.6216 6.38882 19.4213 6.46942 19.2124 6.46942H5.78761C5.57872 6.46942 5.37839 6.38882 5.23068 6.24534C5.08298 6.10187 5 5.90727 5 5.70437C5 5.50147 5.08298 5.30687 5.23068 5.1634C5.37839 5.01993 5.57872 4.93932 5.78761 4.93932H8.22919C8.47875 4.93998 8.71962 4.85042 8.90495 4.68808C9.09027 4.52574 9.20679 4.30223 9.23182 4.06105C9.28994 3.49528 9.56282 2.9708 9.99729 2.58979C10.4318 2.20878 10.9967 1.99853 11.582 2.00001H13.4172C14.0025 1.99853 14.5674 2.20878 15.0019 2.58979C15.4364 2.9708 15.7093 3.49528 15.7674 4.06105C15.7924 4.30223 15.9089 4.52574 16.0943 4.68808C16.2796 4.85042 16.5205 4.93998 16.77 4.93932H19.2116C19.4205 4.93932 19.6208 5.01993 19.7685 5.1634C19.9162 5.30687 19.9992 5.50147 19.9992 5.70437H20ZM10.5991 4.93932H14.4017C14.2982 4.70961 14.2305 4.4662 14.2008 4.21712C14.1813 4.02854 14.0904 3.85371 13.9458 3.7265C13.8012 3.59929 13.6131 3.52876 13.418 3.52857H11.5828C11.3877 3.52876 11.1996 3.59929 11.055 3.7265C10.9103 3.85371 10.8195 4.02854 10.7999 4.21712C10.77 4.46624 10.7029 4.70965 10.5991 4.93932ZM11.3922 16.5306V10.0162C11.3922 9.81328 11.3092 9.61869 11.1615 9.47521C11.0138 9.33174 10.8135 9.25114 10.6046 9.25114C10.3957 9.25114 10.1954 9.33174 10.0477 9.47521C9.89999 9.61869 9.81701 9.81328 9.81701 10.0162V16.5336C9.81701 16.7365 9.89999 16.9311 10.0477 17.0746C10.1954 17.2181 10.3957 17.2987 10.6046 17.2987C10.8135 17.2987 11.0138 17.2181 11.1615 17.0746C11.3092 16.9311 11.3922 16.7365 11.3922 16.5336V16.5306ZM15.1838 16.5306V10.0162C15.1838 9.81328 15.1008 9.61869 14.9531 9.47521C14.8054 9.33174 14.6051 9.25114 14.3962 9.25114C14.1873 9.25114 13.9869 9.33174 13.8392 9.47521C13.6915 9.61869 13.6086 9.81328 13.6086 10.0162V16.5336C13.6086 16.7365 13.6915 16.9311 13.8392 17.0746C13.9869 17.2181 14.1873 17.2987 14.3962 17.2987C14.6051 17.2987 14.8054 17.2181 14.9531 17.0746C15.1008 16.9311 15.1838 16.7365 15.1838 16.5336V16.5306Z" fill="#B6013C"/>
</g>
</svg>
